<svg width="24" height="24" viewBox="0 0 24 24" fill="none" xmlns="http://www.w3.org/2000/svg">
<path d="M9.425 21.8C9.24167 21.85 9.08333 21.825 8.95 21.725C8.81667 21.625 8.75 21.4833 8.75 21.3C8.75 21.2 8.775 21.1 8.825 21C8.875 20.9 8.94167 20.8167 9.025 20.75L10.75 19.45V13.175L2.925 15.475C2.675 15.5583 2.45833 15.5333 2.275 15.4C2.09167 15.2667 2 15.0583 2 14.775C2 14.6417 2.0375 14.5042 2.1125 14.3625C2.1875 14.2208 2.28333 14.1167 2.4 14.05L10.75 9.15V3.25C10.75 2.9 10.8708 2.60417 11.1125 2.3625C11.3542 2.12083 11.65 2 12 2C12.35 2 12.6458 2.12083 12.8875 2.3625C13.1292 2.60417 13.25 2.9 13.25 3.25V9.15L21.6 14.05C21.7167 14.1167 21.8125 14.225 21.8875 14.375C21.9625 14.525 22 14.6667 22 14.8C22 15.0667 21.9083 15.2667 21.725 15.4C21.5417 15.5333 21.325 15.5583 21.075 15.475L13.25 13.175V19.45L14.975 20.75C15.0583 20.8167 15.125 20.9 15.175 21C15.225 21.1 15.25 21.2 15.25 21.3C15.25 21.4833 15.1833 21.625 15.05 21.725C14.9167 21.825 14.7583 21.85 14.575 21.8L12 21.075L9.425 21.8Z" fill="#F8F8F8"/>
</svg>
