<svg width="16" height="16" viewBox="0 0 16 16" fill="none" xmlns="http://www.w3.org/2000/svg">
<path d="M11.6333 7.01667L8.33333 10.3167C8.27778 10.3722 8.22222 10.4111 8.16666 10.4333C8.11111 10.4556 8.05 10.4667 7.98333 10.4667C7.91666 10.4667 7.85555 10.4556 7.8 10.4333C7.74444 10.4111 7.68889 10.3722 7.63333 10.3167L4.31666 7.00001C4.21666 6.90001 4.16666 6.78056 4.16666 6.64167C4.16666 6.50279 4.21666 6.38334 4.31666 6.28334C4.41666 6.18334 4.53889 6.13612 4.68333 6.14167C4.82778 6.14723 4.95 6.20001 5.05 6.30001L7.98333 9.23334L10.9333 6.28334C11.0333 6.18334 11.15 6.13334 11.2833 6.13334C11.4167 6.13334 11.5333 6.18334 11.6333 6.28334C11.7333 6.38334 11.7833 6.50556 11.7833 6.65001C11.7833 6.79445 11.7333 6.91667 11.6333 7.01667Z" fill="black"/>
</svg>
