<svg width="280" height="58" viewBox="0 0 280 58" fill="none" xmlns="http://www.w3.org/2000/svg">
<path d="M45.598 43.2663H28.7271C28.1682 43.2663 27.7148 43.7209 27.7148 44.2813C27.7148 44.8417 28.1682 45.2963 28.7271 45.2963H45.598C46.1569 45.2963 46.6102 44.8417 46.6102 44.2813C46.6102 43.7209 46.1569 43.2663 45.598 43.2663Z" fill="white"/>
<path d="M53.1516 37.7368H23.0697C22.5108 37.7368 22.0574 38.1914 22.0574 38.7518C22.0574 39.3122 22.5108 39.7668 23.0697 39.7668H53.1516C53.7105 39.7668 54.1638 39.3122 54.1638 38.7518C54.1638 38.1914 53.7105 37.7368 53.1516 37.7368Z" fill="white"/>
<path d="M31.9626 14.7784H44.2587C44.8176 14.7784 45.2709 14.3238 45.2709 13.7634C45.2709 13.203 44.8176 12.7484 44.2587 12.7484H31.9626C31.4037 12.7484 30.9503 13.203 30.9503 13.7634C30.9503 14.3238 31.4037 14.7784 31.9626 14.7784Z" fill="white"/>
<path d="M22.5832 13.8278L37.4544 25.7003L37.5082 25.7356C37.531 25.7502 37.56 25.773 37.6055 25.7979C37.6469 25.8187 37.678 25.829 37.6925 25.8353C37.709 25.8415 37.7401 25.8581 37.7877 25.8705C37.8332 25.883 37.8664 25.8892 37.8871 25.8934C37.9036 25.8955 37.9347 25.9038 37.9781 25.9079C38.003 25.91 38.0258 25.91 38.0423 25.91H38.0754H38.1106C38.1272 25.91 38.1479 25.91 38.1727 25.9079C38.2183 25.9038 38.2473 25.8955 38.2638 25.8934C38.2845 25.8892 38.3176 25.8851 38.3632 25.8726C38.4087 25.8581 38.4398 25.8436 38.4584 25.8373C38.4729 25.8311 38.5039 25.8207 38.5474 25.8C38.5929 25.7751 38.6219 25.7543 38.6447 25.7377L38.6882 25.7107L38.6985 25.7045L53.6381 13.8319C53.8885 13.6327 54.021 13.3338 54.021 13.037C54.021 12.817 53.9486 12.5928 53.8016 12.4081C53.6029 12.1548 53.3048 12.0241 53.0088 12.0241C52.7893 12.0241 52.5658 12.0967 52.3815 12.2441L38.0816 23.6081L23.8439 12.242C23.6576 12.0947 23.434 12.022 23.2146 12.022C22.9185 12.022 22.6225 12.1528 22.4217 12.4039C22.2748 12.5886 22.2002 12.8149 22.2023 13.0349C22.2023 13.3317 22.3327 13.6285 22.5832 13.8278Z" fill="white"/>
<path d="M75.624 2.59037C75.4522 2.47206 75.2514 2.41187 75.0506 2.41187C74.8291 2.41187 74.6097 2.48452 74.4275 2.62774L57.656 15.8017L55.5508 0.871761C55.4804 0.371536 55.054 0 54.5489 0H21.6724C21.1673 0 20.7409 0.371536 20.6705 0.871761L18.5652 15.8017L1.79371 2.62774C1.61154 2.48452 1.39005 2.41187 1.17062 2.41187C0.9719 2.41187 0.771105 2.47206 0.597221 2.59037C0.317765 2.78341 0.158371 3.0989 0.158371 3.42685C0.158371 3.52648 0.172861 3.62611 0.203912 3.72366L2.62587 11.6712C2.69625 11.9016 2.84529 12.0988 3.04816 12.2296L4.00038 12.8419L6.91708 20.6296C7.01644 20.8953 7.22344 21.107 7.48427 21.2128L8.96642 21.8127L11.5581 27.4895C11.6927 27.7843 11.9618 27.998 12.2785 28.0624L14.1001 28.4277L16.2633 32.0974L14.8226 42.3074C14.8164 42.3551 14.8122 42.4029 14.8122 42.4506C14.8122 42.7951 14.9882 43.1189 15.2842 43.3078L37.9202 57.6234V57.5404C37.9802 57.5507 38.0423 57.557 38.1023 57.557C38.2183 57.557 38.3321 57.5341 38.4418 57.4968L38.4584 57.5217L60.9308 43.3099C61.2268 43.1231 61.4028 42.7972 61.4028 42.4527C61.4028 42.4049 61.3987 42.3572 61.3924 42.3094L59.9517 32.0995L62.117 28.4277L63.9365 28.0624C64.2553 27.998 64.5224 27.7863 64.6569 27.4895L67.2486 21.8127L68.7308 21.2128C68.9937 21.107 69.1986 20.8953 69.298 20.6296L72.2147 12.8419L73.1669 12.2316C73.3677 12.1009 73.5188 11.9037 73.5892 11.6733L76.0132 3.72574C76.0422 3.62819 76.0567 3.52648 76.0567 3.42893C76.0567 3.10098 75.8973 2.78548 75.6178 2.59453L75.624 2.59037ZM22.3141 27.2259C22.4383 27.2757 22.5666 27.3006 22.6929 27.3006C23.0924 27.3006 23.4712 27.0619 23.6306 26.6676C23.6803 26.543 23.7052 26.4143 23.7052 26.2877C23.7052 25.8871 23.4671 25.5073 23.0738 25.3475L8.65592 19.5005L6.84669 14.6684L18.2858 22.012L19.0289 22.4873C19.1966 22.5952 19.387 22.6471 19.5733 22.6471C19.9066 22.6471 20.2337 22.481 20.4262 22.1801C20.5338 22.012 20.5856 21.821 20.5856 21.6342C20.5856 21.3 20.42 20.9721 20.1198 20.779L19.3767 20.3037L4.45165 10.7206L3.07714 6.21233L18.6977 18.4834L35.1111 31.3772L28.6816 31.317C29.137 31.2962 29.5344 30.9724 29.6296 30.5054C29.6421 30.439 29.6503 30.3705 29.6503 30.3061C29.6503 29.8308 29.3171 29.4095 28.8368 29.3119L13.1873 26.1736L11.701 22.919L22.3182 27.2238L22.3141 27.2259ZM28.4373 31.3024C28.489 31.3128 28.5387 31.3149 28.5905 31.317L18.0995 31.2194L16.7684 28.9611L28.4394 31.3024H28.4373ZM38.1106 55.3443L16.9195 41.9421L18.145 33.2494L38.0754 33.4341H38.1086H38.1334H38.1417L58.0721 33.2514L59.2996 41.9441L38.1086 55.3464L38.1106 55.3443ZM22.5501 2.02996H53.6691L55.8157 17.2484L38.1106 31.1571L20.4034 17.2484L22.5501 2.02996ZM71.7675 10.7206L56.8446 20.3016L56.1035 20.777C55.8013 20.97 55.6356 21.2979 55.6356 21.6321C55.6356 21.8189 55.6874 22.0099 55.795 22.178C55.9876 22.481 56.3146 22.6471 56.6479 22.645C56.8342 22.645 57.0246 22.5931 57.1923 22.4852L57.9396 22.0057L69.3725 14.6663L67.5633 19.4984L53.1454 25.3454C52.7521 25.5052 52.5119 25.8851 52.5119 26.2857C52.5119 26.4123 52.5347 26.541 52.5865 26.6655C52.7459 27.0599 53.1247 27.3006 53.5242 27.2986C53.6505 27.2986 53.7788 27.2737 53.903 27.2238L64.5203 22.919L63.034 26.1736L47.3844 29.3119C46.9042 29.4095 46.5709 29.8308 46.5709 30.3061C46.5709 30.3726 46.5771 30.439 46.5916 30.5054C46.6848 30.9724 47.0843 31.2962 47.5397 31.317L41.1101 31.3772L57.5235 18.4834L73.1441 6.21233L71.7696 10.7206H71.7675ZM58.1218 31.2194L47.6308 31.317C47.6805 31.3149 47.7322 31.3128 47.7819 31.3024L59.4528 28.9611L58.1218 31.2194Z" fill="white"/>
<path d="M87.519 37.8416C86.0707 37.4677 84.9159 36.9972 84.0567 36.4301L85.8213 32.6198C86.6366 33.1408 87.6196 33.5671 88.7744 33.8948C89.9271 34.2246 91.0588 34.3884 92.1675 34.3884C94.4079 34.3884 95.5271 33.8339 95.5271 32.7228C95.5271 32.2018 95.2211 31.828 94.6112 31.6011C93.9992 31.3743 93.0603 31.181 91.7944 31.0235C90.3022 30.7966 89.0678 30.5362 88.0953 30.2421C87.1228 29.948 86.2803 29.425 85.5678 28.6773C84.8552 27.9295 84.4989 26.8625 84.4989 25.4803C84.4989 24.323 84.8321 23.298 85.5007 22.4032C86.1672 21.5084 87.1417 20.811 88.4202 20.3111C89.6986 19.8133 91.2076 19.5633 92.9513 19.5633C94.2402 19.5633 95.525 19.7062 96.8034 19.9876C98.0819 20.2712 99.1403 20.6619 99.9765 21.1618L98.2118 24.9363C96.6043 24.0289 94.8522 23.5752 92.9513 23.5752C91.8196 23.5752 90.9708 23.7349 90.4049 24.052C89.839 24.3692 89.5561 24.7788 89.5561 25.2766C89.5561 25.8437 89.8621 26.2407 90.472 26.4676C91.0818 26.6944 92.0543 26.9087 93.3914 27.1145C94.8837 27.3645 96.1076 27.6312 97.057 27.9127C98.0064 28.1962 98.8322 28.713 99.5343 29.4607C100.236 30.2085 100.586 31.2524 100.586 32.5904C100.586 33.7247 100.247 34.7329 99.5678 35.6172C98.8888 36.5015 97.8995 37.1884 96.598 37.6757C95.2965 38.163 93.7519 38.4066 91.9663 38.4066C90.451 38.4066 88.9672 38.2197 87.521 37.8458L87.519 37.8416Z" fill="#F8F8F8"/>
<path d="M119.082 21.584C120.597 22.9325 121.356 24.9678 121.356 27.69V38.1315H116.401V35.8525C115.406 37.5538 113.551 38.4024 110.835 38.4024C109.431 38.4024 108.215 38.1651 107.186 37.6883C106.157 37.2115 105.371 36.554 104.826 35.7159C104.283 34.8778 104.011 33.9242 104.011 32.8593C104.011 31.1579 104.65 29.8199 105.929 28.8453C107.207 27.8707 109.181 27.3834 111.851 27.3834H116.06C116.06 26.226 115.71 25.3375 115.008 24.7137C114.306 24.0898 113.253 23.779 111.851 23.779C110.879 23.779 109.921 23.9323 108.984 24.239C108.045 24.5456 107.247 24.9594 106.591 25.4803L104.69 21.773C105.685 21.0715 106.878 20.5253 108.27 20.141C109.661 19.7566 111.093 19.5633 112.562 19.5633C115.389 19.5633 117.562 20.2376 119.078 21.5861L119.082 21.584ZM114.568 34.2036C115.27 33.7835 115.766 33.166 116.06 32.3489V30.4774H112.428C110.256 30.4774 109.171 31.1915 109.171 32.6198C109.171 33.3004 109.437 33.8381 109.967 34.2351C110.5 34.6321 111.229 34.8295 112.157 34.8295C113.086 34.8295 113.865 34.6195 114.568 34.1994V34.2036Z" fill="#F8F8F8"/>
<path d="M133.3 20.2418H137.984V24.323H133.436V38.1315H128.142V24.323H125.325V20.2418H128.142V19.4247C128.142 17.3389 128.758 15.6838 129.991 14.4592C131.223 13.2346 132.96 12.6234 135.201 12.6234C135.993 12.6234 136.746 12.7074 137.458 12.8775C138.171 13.0477 138.764 13.2913 139.24 13.6085L137.848 17.4524C137.236 17.0218 136.523 16.8054 135.71 16.8054C134.103 16.8054 133.3 17.6897 133.3 19.4583V20.2397V20.2418Z" fill="#F8F8F8"/>
<path d="M159.535 30.4795H145.722C145.971 31.6137 146.558 32.5085 147.487 33.166C148.415 33.8234 149.568 34.1532 150.949 34.1532C151.898 34.1532 152.741 34.0125 153.476 33.7289C154.212 33.4453 154.895 32.9979 155.53 32.3846L158.347 35.445C156.626 37.4173 154.116 38.4045 150.813 38.4045C148.755 38.4045 146.931 38.0013 145.349 37.1968C143.764 36.3923 142.543 35.2749 141.683 33.8465C140.824 32.4182 140.394 30.7967 140.394 28.9818C140.394 27.167 140.818 25.5749 141.666 24.1361C142.515 22.6972 143.681 21.5735 145.162 20.769C146.644 19.9645 148.302 19.5612 150.134 19.5612C151.965 19.5612 153.539 19.9477 154.988 20.7186C156.436 21.4895 157.572 22.5943 158.397 24.0352C159.223 25.4762 159.636 27.1481 159.636 29.0533C159.636 29.1205 159.602 29.5973 159.535 30.4816V30.4795ZM147.147 24.5961C146.332 25.2766 145.835 26.2071 145.655 27.3855H154.648C154.466 26.2281 153.969 25.306 153.156 24.6129C152.34 23.9218 151.345 23.5752 150.169 23.5752C148.993 23.5752 147.962 23.9155 147.149 24.5961H147.147Z" fill="#F8F8F8"/>
<path d="M170.327 20.2418H175.011V24.323H170.463V38.1315H165.169V24.323H162.352V20.2418H165.169V19.4247C165.169 17.3389 165.785 15.6838 167.018 14.4592C168.25 13.2346 169.987 12.6234 172.228 12.6234C173.02 12.6234 173.772 12.7074 174.485 12.8775C175.197 13.0477 175.791 13.2913 176.266 13.6085L174.875 17.4524C174.263 17.0218 173.55 16.8054 172.737 16.8054C171.129 16.8054 170.327 17.6897 170.327 19.4583V20.2397V20.2418ZM177.658 12.8943H182.952V38.1315H177.658V12.8943Z" fill="#F8F8F8"/>
<path d="M207.012 30.4795H193.198C193.448 31.6137 194.035 32.5085 194.963 33.166C195.892 33.8234 197.044 34.1532 198.425 34.1532C199.375 34.1532 200.217 34.0125 200.953 33.7289C201.689 33.4453 202.372 32.9979 203.007 32.3846L205.824 35.445C204.103 37.4173 201.592 38.4045 198.289 38.4045C196.231 38.4045 194.408 38.0013 192.825 37.1968C191.241 36.3923 190.019 35.2749 189.16 33.8465C188.301 32.4182 187.871 30.7967 187.871 28.9818C187.871 27.167 188.294 25.5749 189.143 24.1361C189.992 22.6972 191.157 21.5735 192.639 20.769C194.121 19.9645 195.778 19.5612 197.61 19.5612C199.442 19.5612 201.016 19.9477 202.464 20.7186C203.912 21.4895 205.048 22.5943 205.874 24.0352C206.7 25.4762 207.113 27.1481 207.113 29.0533C207.113 29.1205 207.079 29.5973 207.012 30.4816V30.4795ZM194.624 24.5961C193.808 25.2766 193.312 26.2071 193.131 27.3855H202.125C201.942 26.2281 201.445 25.306 200.632 24.6129C199.817 23.9218 198.822 23.5752 197.646 23.5752C196.47 23.5752 195.439 23.9155 194.626 24.5961H194.624Z" fill="#F8F8F8"/>
<path d="M230.6 12.8943V38.1315H225.543V36.0226C224.231 37.6106 222.33 38.4024 219.843 38.4024C218.124 38.4024 216.567 38.0181 215.175 37.2451C213.784 36.4742 212.692 35.3736 211.899 33.9452C211.107 32.5169 210.711 30.8618 210.711 28.9797C210.711 27.0977 211.107 25.4425 211.899 24.0142C212.692 22.5859 213.784 21.4853 215.175 20.7144C216.567 19.9435 218.122 19.557 219.843 19.557C222.173 19.557 223.994 20.2943 225.306 21.7688V12.8943H230.6ZM224.085 32.6724C224.967 31.7545 225.407 30.5236 225.407 28.9818C225.407 27.4401 224.967 26.2092 224.085 25.2913C223.202 24.3734 222.093 23.9134 220.758 23.9134C219.423 23.9134 218.281 24.3734 217.399 25.2913C216.517 26.2092 216.074 27.4401 216.074 28.9818C216.074 30.5236 216.517 31.7545 217.399 32.6724C218.281 33.5903 219.4 34.0503 220.758 34.0503C222.117 34.0503 223.202 33.5903 224.085 32.6724Z" fill="#F8F8F8"/>
<path d="M255.679 19.8322V35.069C255.679 38.4255 254.807 40.9188 253.065 42.5508C251.324 44.1829 248.777 45 245.43 45C243.666 45 241.991 44.7836 240.407 44.353C238.822 43.9224 237.51 43.2986 236.471 42.4815L238.575 38.6713C239.344 39.3056 240.317 39.8097 241.494 40.1857C242.67 40.5596 243.848 40.7465 245.024 40.7465C246.856 40.7465 248.207 40.3327 249.079 39.5052C249.951 38.6776 250.385 37.4257 250.385 35.7474V34.966C249.004 36.4847 247.082 37.2451 244.615 37.2451C242.941 37.2451 241.409 36.8775 240.017 36.1402C238.625 35.4029 237.523 34.3653 236.708 33.0273C235.892 31.6893 235.486 30.1476 235.486 28.4021C235.486 26.6566 235.892 25.1149 236.708 23.7769C237.523 22.4389 238.625 21.4012 240.017 20.664C241.409 19.9267 242.941 19.5591 244.615 19.5591C247.262 19.5591 249.276 20.4329 250.655 22.1784V19.8322H255.679ZM249.113 31.6515C250.006 30.8239 250.454 29.7422 250.454 28.4042C250.454 27.0662 250.008 25.9844 249.113 25.1569C248.218 24.3293 247.071 23.9155 245.667 23.9155C244.263 23.9155 243.11 24.3293 242.205 25.1569C241.3 25.9844 240.847 27.0683 240.847 28.4042C240.847 29.7401 241.3 30.8239 242.205 31.6515C243.11 32.4791 244.263 32.8929 245.667 32.8929C247.071 32.8929 248.218 32.4791 249.113 31.6515Z" fill="#F8F8F8"/>
<path d="M279.741 30.4795H265.927C266.177 31.6137 266.764 32.5085 267.692 33.166C268.621 33.8234 269.773 34.1532 271.154 34.1532C272.104 34.1532 272.946 34.0125 273.682 33.7289C274.418 33.4453 275.101 32.9979 275.736 32.3846L278.553 35.445C276.832 37.4173 274.321 38.4045 271.018 38.4045C268.96 38.4045 267.137 38.0013 265.554 37.1968C263.97 36.3923 262.748 35.2749 261.889 33.8465C261.03 32.4182 260.6 30.7967 260.6 28.9818C260.6 27.167 261.023 25.5749 261.872 24.1361C262.721 22.6972 263.886 21.5735 265.368 20.769C266.85 19.9645 268.507 19.5612 270.339 19.5612C272.171 19.5612 273.745 19.9477 275.193 20.7186C276.641 21.4895 277.777 22.5943 278.603 24.0352C279.429 25.4762 279.842 27.1481 279.842 29.0533C279.842 29.1205 279.808 29.5973 279.741 30.4816V30.4795ZM267.353 24.5961C266.537 25.2766 266.041 26.2071 265.86 27.3855H274.854C274.671 26.2281 274.175 25.306 273.361 24.6129C272.546 23.9218 271.551 23.5752 270.375 23.5752C269.199 23.5752 268.168 23.9155 267.355 24.5961H267.353Z" fill="#F8F8F8"/>
</svg>
