<?xml version="1.0" encoding="UTF-8"?>
<svg id="Layer_1" data-name="Layer 1" xmlns="http://www.w3.org/2000/svg" xmlns:xlink="http://www.w3.org/1999/xlink" viewBox="0 0 371.02 277.61">
  <defs>
    <style>
      .cls-1 {
        fill: url(#linear-gradient-2);
      }

      .cls-2 {
        fill: url(#linear-gradient-5);
      }

      .cls-3 {
        fill: url(#linear-gradient-3);
      }

      .cls-4 {
        fill: url(#linear-gradient);
      }

      .cls-5 {
        fill: url(#linear-gradient-4);
      }
    </style>
    <linearGradient id="linear-gradient" x1="57.97" y1="213.32" x2="334.55" y2="213.32" gradientUnits="userSpaceOnUse">
      <stop offset="0" stop-color="#56ccf2"/>
      <stop offset="1" stop-color="#2f80ed"/>
    </linearGradient>
    <linearGradient id="linear-gradient-2" x1="57.97" y1="186.69" x2="334.55" y2="186.69" xlink:href="#linear-gradient"/>
    <linearGradient id="linear-gradient-3" x1="57.97" y1="66.3" x2="334.55" y2="66.3" xlink:href="#linear-gradient"/>
    <linearGradient id="linear-gradient-4" y1="91.37" x2="334.55" y2="91.37" xlink:href="#linear-gradient"/>
    <linearGradient id="linear-gradient-5" x1="57.97" y1="138.81" x2="334.55" y2="138.81" xlink:href="#linear-gradient"/>
  </defs>
  <path class="cls-4" d="m222.11,208.44h-82.47c-2.73,0-4.94,2.19-4.94,4.89,0,2.7,2.21,4.89,4.94,4.89h82.47c2.73,0,4.94-2.19,4.94-4.89,0-2.7-2.21-4.89-4.94-4.89Z"/>
  <path class="cls-1" d="m259.03,181.8H111.99c-2.73,0-4.94,2.19-4.94,4.89,0,2.7,2.21,4.89,4.94,4.89h147.04c2.73,0,4.94-2.19,4.94-4.89,0-2.7-2.21-4.89-4.94-4.89Z"/>
  <path class="cls-3" d="m155.46,71.19h60.1c2.73,0,4.94-2.19,4.94-4.89,0-2.7-2.21-4.89-4.94-4.89h-60.1c-2.73,0-4.94,2.19-4.94,4.89,0,2.7,2.21,4.89,4.94,4.89Z"/>
  <path class="cls-5" d="m109.61,66.61h0s72.69,57.2,72.69,57.2l.26.17c.11.07.25.18.47.3.2.1.35.15.42.18.08.03.23.11.46.17.22.06.38.09.48.11h0c.08.01.23.05.45.07h0c.12.01.23.01.31.01h.16s.17,0,.17,0c.08,0,.18,0,.3-.01h0c.22-.02.37-.06.45-.07.1-.02.26-.04.48-.1.23-.07.38-.14.46-.17h0c.07-.03.22-.08.43-.18.22-.12.37-.22.48-.3l.21-.13.05-.03,73.02-57.2c1.23-.96,1.87-2.4,1.87-3.83,0-1.06-.35-2.14-1.07-3.03-.97-1.22-2.42-1.85-3.88-1.85-1.07,0-2.16.35-3.07,1.06l-69.9,54.75-69.58-54.75c-.91-.71-2-1.06-3.08-1.06-1.45,0-2.9.63-3.87,1.84-.72.89-1.08,1.98-1.08,3.04,0,1.43.64,2.86,1.86,3.82Z"/>
  <path class="cls-2" d="m368.87,12.47l-.64.92.64-.92c-.84-.57-1.82-.86-2.8-.86-1.08,0-2.16.35-3.05,1.04l-81.98,63.47-10.29-71.93c-.35-2.41-2.43-4.2-4.89-4.2H105.16c-2.46,0-4.55,1.79-4.9,4.2l-10.29,71.93L7.99,12.65c-.89-.69-1.97-1.04-3.05-1.04-.97,0-1.95.29-2.8.86C.78,13.4,0,14.92,0,16.5c0,.48.07.96.22,1.43l11.84,38.29c.34,1.11,1.08,2.06,2.06,2.69l4.66,2.95,14.26,37.52c.49,1.28,1.49,2.3,2.77,2.81l7.24,2.89,12.67,27.35c.66,1.42,1.97,2.45,3.53,2.76l8.9,1.76,10.57,17.68-7.04,49.19c-.03.23-.05.46-.05.69,0,1.66.86,3.22,2.31,4.13l110.65,68.97v-.4c.3.05.59.08.89.08.57,0,1.13-.11,1.66-.29l.08.12,109.85-68.47c1.45-.9,2.31-2.47,2.31-4.13,0-.23-.02-.46-.05-.69h0s-7.04-49.19-7.04-49.19l10.58-17.69,8.9-1.76c1.56-.31,2.87-1.33,3.53-2.76l12.67-27.35,7.24-2.89c1.28-.51,2.29-1.53,2.77-2.81l14.26-37.52,4.65-2.94c.99-.63,1.72-1.58,2.06-2.69l11.85-38.29c.15-.47.22-.96.22-1.43,0-1.58-.78-3.1-2.15-4.02ZM108.3,131.16c.6.24,1.23.36,1.85.36,1.96,0,3.8-1.15,4.59-3.05.24-.6.36-1.22.36-1.83,0-1.93-1.17-3.76-3.09-4.53l-70.47-28.17-8.85-23.28,55.92,35.38,3.63,2.29c.82.52,1.75.77,2.66.77,1.63,0,3.22-.8,4.17-2.25.53-.81.78-1.73.78-2.63,0-1.61-.81-3.19-2.28-4.12l-3.63-2.29L20.98,51.64l-6.72-21.72,76.35,59.12,80.23,62.12-31.43-.29c2.22-.1,4.17-1.66,4.63-3.91.06-.32.1-.65.1-.96,0-2.29-1.62-4.32-3.97-4.79l-76.5-15.12-7.26-15.68,51.89,20.74Zm29.93,19.64c.25.05.5.06.74.07l-51.28-.47-6.51-10.88,57.05,11.28Zm47.28,115.83l-103.58-64.57,5.99-41.88,97.42.89h.17s.12,0,.12,0h.04s97.41-.88,97.41-.88l6,41.88-103.58,64.57ZM109.45,9.77h152.11l10.49,73.32-86.55,67.01-86.55-67.01,10.49-73.32Zm240.58,41.87l-72.95,46.16h0s-3.62,2.29-3.62,2.29c-1.47.93-2.28,2.51-2.28,4.12,0,.9.25,1.82.78,2.63.94,1.46,2.54,2.26,4.17,2.25.91,0,1.84-.25,2.66-.77l3.65-2.31h0s55.88-35.36,55.88-35.36l-8.85,23.28-70.47,28.17c-1.92.77-3.09,2.6-3.09,4.53,0,.61.12,1.23.36,1.83.78,1.9,2.63,3.06,4.59,3.05.62,0,1.25-.12,1.85-.36l51.89-20.74-7.26,15.68-76.5,15.12c-2.35.47-3.98,2.5-3.98,4.79,0,.32.03.64.1.96.46,2.25,2.41,3.81,4.63,3.91l-31.43.29,80.23-62.12,76.35-59.12-6.72,21.72Zm-66.7,98.76l-51.28.47c.25-.01.49-.02.74-.07l57.05-11.28-6.51,10.88Z"/>
</svg>