<?xml version="1.0" encoding="UTF-8"?>
<svg id="Layer_1" data-name="Layer 1" xmlns="http://www.w3.org/2000/svg" xmlns:xlink="http://www.w3.org/1999/xlink" viewBox="0 0 1296.35 277.61">
  <defs>
    <style>
      .cls-1 {
        fill: url(#linear-gradient-2);
      }

      .cls-2 {
        fill: url(#linear-gradient-5);
      }

      .cls-3 {
        fill: url(#linear-gradient-3);
      }

      .cls-4 {
        fill: url(#linear-gradient);
      }

      .cls-5 {
        fill: url(#linear-gradient-4);
      }

      .cls-6 {
        fill: #414042;
      }
    </style>
    <linearGradient id="linear-gradient" x1="57.3" y1="213.32" x2="330.63" y2="213.32" gradientUnits="userSpaceOnUse">
      <stop offset="0" stop-color="#56ccf2"/>
      <stop offset="1" stop-color="#2f80ed"/>
    </linearGradient>
    <linearGradient id="linear-gradient-2" x1="57.3" y1="186.69" x2="330.63" y2="186.69" xlink:href="#linear-gradient"/>
    <linearGradient id="linear-gradient-3" x1="57.3" y1="66.3" x2="330.63" y2="66.3" xlink:href="#linear-gradient"/>
    <linearGradient id="linear-gradient-4" x1="57.3" y1="91.37" x2="330.63" y2="91.37" xlink:href="#linear-gradient"/>
    <linearGradient id="linear-gradient-5" x1="57.3" y1="138.81" x2="330.63" y2="138.81" xlink:href="#linear-gradient"/>
  </defs>
  <g>
    <path class="cls-6" d="m378.7,180.72c-6.91-1.78-12.42-4.02-16.52-6.72l8.42-18.14c3.89,2.48,8.58,4.51,14.09,6.07,5.5,1.57,10.9,2.35,16.19,2.35,10.69,0,16.03-2.64,16.03-7.93,0-2.48-1.46-4.26-4.37-5.34-2.92-1.08-7.4-2-13.44-2.75-7.12-1.08-13.01-2.32-17.65-3.72-4.64-1.4-8.66-3.89-12.06-7.45-3.4-3.56-5.1-8.64-5.1-15.22,0-5.51,1.59-10.39,4.78-14.65,3.18-4.26,7.83-7.58,13.93-9.96,6.1-2.37,13.3-3.56,21.62-3.56,6.15,0,12.28.68,18.38,2.02,6.1,1.35,11.15,3.21,15.14,5.59l-8.42,17.97c-7.67-4.32-16.03-6.48-25.1-6.48-5.4,0-9.45.76-12.15,2.27-2.7,1.51-4.05,3.46-4.05,5.83,0,2.7,1.46,4.59,4.37,5.67,2.91,1.08,7.55,2.1,13.93,3.08,7.12,1.19,12.96,2.46,17.49,3.8,4.53,1.35,8.47,3.81,11.82,7.37,3.35,3.56,5.02,8.53,5.02,14.9,0,5.4-1.62,10.2-4.86,14.41-3.24,4.21-7.96,7.48-14.17,9.8-6.21,2.32-13.58,3.48-22.1,3.48-7.23,0-14.31-.89-21.21-2.67Z"/>
    <path class="cls-6" d="m529.3,103.32c7.23,6.42,10.85,16.11,10.85,29.07v49.71h-23.64v-10.85c-4.75,8.1-13.6,12.14-26.56,12.14-6.7,0-12.5-1.13-17.41-3.4-4.91-2.27-8.66-5.4-11.26-9.39-2.59-3.99-3.89-8.53-3.89-13.6,0-8.1,3.05-14.47,9.15-19.11,6.1-4.64,15.52-6.96,28.26-6.96h20.08c0-5.51-1.67-9.74-5.02-12.71-3.35-2.97-8.37-4.45-15.06-4.45-4.64,0-9.21.73-13.68,2.19-4.48,1.46-8.29,3.43-11.42,5.91l-9.07-17.65c4.75-3.34,10.44-5.94,17.08-7.77,6.64-1.83,13.47-2.75,20.48-2.75,13.49,0,23.86,3.21,31.09,9.63Zm-21.54,60.08c3.35-2,5.72-4.94,7.12-8.83v-8.91h-17.33c-10.36,0-15.54,3.4-15.54,10.2,0,3.24,1.27,5.8,3.8,7.69,2.54,1.89,6.02,2.83,10.45,2.83s8.15-1,11.5-3Z"/>
    <path class="cls-6" d="m597.14,96.93h22.35v19.43h-21.7v65.74h-25.26v-65.74h-13.44v-19.43h13.44v-3.89c0-9.93,2.94-17.81,8.82-23.64,5.88-5.83,14.17-8.74,24.86-8.74,3.78,0,7.37.4,10.77,1.21,3.4.81,6.23,1.97,8.5,3.48l-6.64,18.3c-2.92-2.05-6.32-3.08-10.2-3.08-7.67,0-11.5,4.21-11.5,12.63v3.72Z"/>
    <path class="cls-6" d="m722.32,145.67h-65.91c1.19,5.4,3.99,9.66,8.42,12.79,4.43,3.13,9.93,4.7,16.52,4.7,4.53,0,8.55-.67,12.06-2.02,3.51-1.35,6.77-3.48,9.8-6.4l13.44,14.57c-8.21,9.39-20.19,14.09-35.95,14.09-9.82,0-18.52-1.92-26.07-5.75-7.56-3.83-13.39-9.15-17.49-15.95-4.1-6.8-6.15-14.52-6.15-23.16s2.02-16.22,6.07-23.07c4.05-6.85,9.61-12.2,16.68-16.03,7.07-3.83,14.98-5.75,23.72-5.75s16.25,1.84,23.16,5.51c6.91,3.67,12.33,8.93,16.27,15.79,3.94,6.86,5.91,14.82,5.91,23.89,0,.32-.16,2.59-.48,6.8Zm-59.11-28.01c-3.89,3.24-6.26,7.67-7.12,13.28h42.91c-.87-5.51-3.24-9.9-7.12-13.2-3.89-3.29-8.64-4.94-14.25-4.94s-10.53,1.62-14.41,4.86Z"/>
    <path class="cls-6" d="m773.81,96.93h22.35v19.43h-21.7v65.74h-25.26v-65.74h-13.44v-19.43h13.44v-3.89c0-9.93,2.94-17.81,8.82-23.64,5.88-5.83,14.17-8.74,24.86-8.74,3.78,0,7.37.4,10.77,1.21,3.4.81,6.23,1.97,8.5,3.48l-6.64,18.3c-2.92-2.05-6.32-3.08-10.2-3.08-7.67,0-11.5,4.21-11.5,12.63v3.72Zm34.98-34.98h25.26v120.15h-25.26V61.95Z"/>
    <path class="cls-6" d="m948.85,145.67h-65.91c1.19,5.4,3.99,9.66,8.42,12.79,4.43,3.13,9.93,4.7,16.52,4.7,4.53,0,8.55-.67,12.06-2.02,3.51-1.35,6.77-3.48,9.8-6.4l13.44,14.57c-8.21,9.39-20.19,14.09-35.95,14.09-9.82,0-18.52-1.92-26.07-5.75-7.56-3.83-13.39-9.15-17.49-15.95-4.1-6.8-6.15-14.52-6.15-23.16s2.02-16.22,6.07-23.07c4.05-6.85,9.61-12.2,16.68-16.03,7.07-3.83,14.98-5.75,23.72-5.75s16.25,1.84,23.16,5.51c6.91,3.67,12.33,8.93,16.27,15.79,3.94,6.86,5.91,14.82,5.91,23.89,0,.32-.16,2.59-.48,6.8Zm-59.11-28.01c-3.89,3.24-6.26,7.67-7.12,13.28h42.91c-.87-5.51-3.24-9.9-7.12-13.2-3.89-3.29-8.64-4.94-14.25-4.94s-10.53,1.62-14.41,4.86Z"/>
    <path class="cls-6" d="m1061.4,61.95v120.15h-24.13v-10.04c-6.26,7.56-15.33,11.33-27.2,11.33-8.2,0-15.63-1.83-22.27-5.51-6.64-3.67-11.85-8.91-15.63-15.71-3.78-6.8-5.67-14.68-5.67-23.64s1.89-16.84,5.67-23.64c3.78-6.8,8.99-12.04,15.63-15.71,6.64-3.67,14.06-5.51,22.27-5.51,11.12,0,19.81,3.51,26.07,10.53v-42.26h25.26Zm-31.09,94.16c4.21-4.37,6.31-10.23,6.31-17.57s-2.1-13.2-6.31-17.57c-4.21-4.37-9.5-6.56-15.87-6.56s-11.82,2.19-16.03,6.56c-4.21,4.37-6.32,10.23-6.32,17.57s2.11,13.2,6.32,17.57c4.21,4.37,9.55,6.56,16.03,6.56s11.66-2.19,15.87-6.56Z"/>
    <path class="cls-6" d="m1181.06,94.98v72.54c0,15.98-4.16,27.85-12.47,35.62-8.31,7.77-20.46,11.66-36.43,11.66-8.42,0-16.41-1.03-23.97-3.08-7.56-2.05-13.82-5.02-18.78-8.91l10.04-18.14c3.67,3.02,8.31,5.42,13.93,7.21,5.61,1.78,11.23,2.67,16.84,2.67,8.74,0,15.19-1.97,19.35-5.91,4.16-3.94,6.23-9.9,6.23-17.89v-3.72c-6.59,7.23-15.76,10.85-27.53,10.85-7.99,0-15.3-1.75-21.94-5.26-6.64-3.51-11.9-8.45-15.79-14.82-3.89-6.37-5.83-13.71-5.83-22.02s1.94-15.65,5.83-22.02c3.89-6.37,9.15-11.31,15.79-14.82,6.64-3.51,13.95-5.26,21.94-5.26,12.63,0,22.24,4.16,28.82,12.47v-11.17h23.97Zm-31.33,56.27c4.26-3.94,6.4-9.09,6.4-15.46s-2.13-11.52-6.4-15.46c-4.27-3.94-9.74-5.91-16.44-5.91s-12.2,1.97-16.52,5.91c-4.32,3.94-6.48,9.1-6.48,15.46s2.16,11.52,6.48,15.46c4.32,3.94,9.82,5.91,16.52,5.91s12.17-1.97,16.44-5.91Z"/>
    <path class="cls-6" d="m1295.87,145.67h-65.91c1.19,5.4,3.99,9.66,8.42,12.79,4.43,3.13,9.93,4.7,16.52,4.7,4.53,0,8.55-.67,12.06-2.02,3.51-1.35,6.77-3.48,9.8-6.4l13.44,14.57c-8.21,9.39-20.19,14.09-35.95,14.09-9.82,0-18.52-1.92-26.07-5.75-7.56-3.83-13.39-9.15-17.49-15.95-4.1-6.8-6.15-14.52-6.15-23.16s2.02-16.22,6.07-23.07c4.05-6.85,9.61-12.2,16.68-16.03,7.07-3.83,14.98-5.75,23.72-5.75s16.25,1.84,23.16,5.51c6.91,3.67,12.33,8.93,16.27,15.79,3.94,6.86,5.91,14.82,5.91,23.89,0,.32-.16,2.59-.48,6.8Zm-59.11-28.01c-3.89,3.24-6.26,7.67-7.12,13.28h42.91c-.87-5.51-3.24-9.9-7.12-13.2-3.89-3.29-8.64-4.94-14.25-4.94s-10.53,1.62-14.41,4.86Z"/>
  </g>
  <g>
    <path class="cls-4" d="m219.51,208.44h-81.5c-2.7,0-4.89,2.19-4.89,4.89,0,2.7,2.19,4.89,4.89,4.89h81.5c2.7,0,4.89-2.19,4.89-4.89,0-2.7-2.19-4.89-4.89-4.89Z"/>
    <path class="cls-1" d="m256,181.8H110.68c-2.7,0-4.89,2.19-4.89,4.89,0,2.7,2.19,4.89,4.89,4.89h145.32c2.7,0,4.89-2.19,4.89-4.89,0-2.7-2.19-4.89-4.89-4.89Z"/>
    <path class="cls-3" d="m153.64,71.19h59.4c2.7,0,4.89-2.19,4.89-4.89,0-2.7-2.19-4.89-4.89-4.89h-59.4c-2.7,0-4.89,2.19-4.89,4.89,0,2.7,2.19,4.89,4.89,4.89Z"/>
    <path class="cls-5" d="m108.33,66.61h0s71.84,57.2,71.84,57.2l.26.17c.11.07.25.18.47.3.2.1.35.15.42.18.08.03.23.11.46.17.22.06.38.09.48.11h0c.08.01.23.05.44.07h0c.12.01.23.01.31.01h.16s.17,0,.17,0c.08,0,.18,0,.3-.01h0c.22-.02.36-.06.44-.07.1-.02.26-.04.48-.1.22-.07.37-.14.46-.17h0c.07-.03.22-.08.43-.18.22-.12.36-.22.47-.3l.21-.13.05-.03,72.17-57.2c1.21-.96,1.85-2.4,1.85-3.83,0-1.06-.35-2.14-1.06-3.03-.96-1.22-2.4-1.85-3.83-1.85-1.06,0-2.14.35-3.03,1.06l-69.08,54.75-68.76-54.75c-.9-.71-1.98-1.06-3.04-1.06-1.43,0-2.86.63-3.83,1.84-.71.89-1.07,1.98-1.06,3.04,0,1.43.63,2.86,1.84,3.82Z"/>
    <path class="cls-2" d="m364.56,12.47l-.63.92.63-.92c-.83-.57-1.8-.86-2.77-.86-1.07,0-2.13.35-3.01,1.04l-81.02,63.47-10.17-71.93c-.34-2.41-2.4-4.2-4.84-4.2H103.93c-2.44,0-4.5,1.79-4.84,4.2l-10.17,71.93L7.9,12.65c-.88-.69-1.95-1.04-3.01-1.04-.96,0-1.93.29-2.77.86C.77,13.4,0,14.92,0,16.5c0,.48.07.96.22,1.43l11.7,38.29c.34,1.11,1.06,2.06,2.04,2.69l4.6,2.95,14.09,37.52c.48,1.28,1.48,2.3,2.74,2.81l7.16,2.89,12.52,27.35c.65,1.42,1.95,2.45,3.48,2.76l8.8,1.76,10.45,17.68-6.96,49.19c-.03.23-.05.46-.05.69,0,1.66.85,3.22,2.28,4.13l109.35,68.97v-.4c.29.05.59.08.88.08.56,0,1.11-.11,1.64-.29l.08.12,108.56-68.47c1.43-.9,2.28-2.47,2.28-4.13,0-.23-.02-.46-.05-.69h0s-6.96-49.19-6.96-49.19l10.46-17.69,8.79-1.76c1.54-.31,2.83-1.33,3.48-2.76l12.52-27.35,7.16-2.89c1.27-.51,2.26-1.53,2.74-2.81l14.09-37.52,4.6-2.94c.97-.63,1.7-1.58,2.04-2.69l11.71-38.29c.14-.47.21-.96.21-1.43,0-1.58-.77-3.1-2.12-4.02ZM107.03,131.16c.6.24,1.22.36,1.83.36,1.93,0,3.76-1.15,4.53-3.05.24-.6.36-1.22.36-1.83,0-1.93-1.15-3.76-3.05-4.53l-69.65-28.17-8.74-23.28,55.26,35.38,3.59,2.29c.81.52,1.73.77,2.63.77,1.61,0,3.19-.8,4.12-2.25.52-.81.77-1.73.77-2.63,0-1.61-.8-3.19-2.25-4.12l-3.59-2.29L20.74,51.64l-6.64-21.72,75.46,59.12,79.29,62.12-31.06-.29c2.2-.1,4.12-1.66,4.58-3.91.06-.32.1-.65.1-.96,0-2.29-1.61-4.32-3.93-4.79l-75.6-15.12-7.18-15.68,51.29,20.74Zm29.58,19.64c.25.05.49.06.74.07l-50.68-.47-6.43-10.88,56.38,11.28Zm46.73,115.83l-102.37-64.57,5.92-41.88,96.28.89h.16s.12,0,.12,0h.04s96.28-.88,96.28-.88l5.93,41.88-102.37,64.57ZM108.17,9.77h150.33l10.37,73.32-85.53,67.01-85.53-67.01,10.37-73.32Zm237.76,41.87l-72.09,46.16h0s-3.58,2.29-3.58,2.29c-1.46.93-2.26,2.51-2.26,4.12,0,.9.25,1.82.77,2.63.93,1.46,2.51,2.26,4.12,2.25.9,0,1.82-.25,2.63-.77l3.61-2.31h0s55.23-35.36,55.23-35.36l-8.74,23.28-69.65,28.17c-1.9.77-3.06,2.6-3.06,4.53,0,.61.11,1.23.36,1.83.77,1.9,2.6,3.06,4.53,3.05.61,0,1.23-.12,1.83-.36l51.29-20.74-7.18,15.68-75.6,15.12c-2.32.47-3.93,2.5-3.93,4.79,0,.32.03.64.1.96.45,2.25,2.38,3.81,4.58,3.91l-31.06.29,79.29-62.12,75.46-59.12-6.64,21.72Zm-65.92,98.76l-50.68.47c.24-.01.49-.02.73-.07l56.38-11.28-6.43,10.88Z"/>
  </g>
</svg>