<svg width="166" height="34" viewBox="0 0 166 34" fill="none" xmlns="http://www.w3.org/2000/svg">
<path d="M27.3719 25.4122H17.4629C17.1346 25.4122 16.8683 25.6792 16.8683 26.0083C16.8683 26.3375 17.1346 26.6045 17.4629 26.6045H27.3719C27.7002 26.6045 27.9664 26.3375 27.9664 26.0083C27.9664 25.6792 27.7002 25.4122 27.3719 25.4122Z" fill="white"/>
<path d="M31.8084 22.1645H14.14C13.8117 22.1645 13.5455 22.4315 13.5455 22.7606C13.5455 23.0898 13.8117 23.3568 14.14 23.3568H31.8084C32.1367 23.3568 32.403 23.0898 32.403 22.7606C32.403 22.4315 32.1367 22.1645 31.8084 22.1645Z" fill="white"/>
<path d="M19.3632 8.68001H26.5852C26.9135 8.68001 27.1798 8.41303 27.1798 8.08387C27.1798 7.75472 26.9135 7.48773 26.5852 7.48773H19.3632C19.0349 7.48773 18.7687 7.75472 18.7687 8.08387C18.7687 8.41303 19.0349 8.68001 19.3632 8.68001Z" fill="white"/>
<path d="M13.8543 8.12165L22.5888 15.0949L22.6204 15.1156C22.6338 15.1242 22.6508 15.1376 22.6776 15.1522C22.7019 15.1644 22.7201 15.1705 22.7286 15.1742C22.7384 15.1778 22.7566 15.1876 22.7846 15.1949C22.8113 15.2022 22.8308 15.2059 22.8429 15.2083C22.8526 15.2095 22.8709 15.2144 22.8964 15.2168C22.911 15.218 22.9244 15.218 22.9341 15.218H22.9536H22.9742C22.984 15.218 22.9961 15.218 23.0107 15.2168C23.0374 15.2144 23.0545 15.2095 23.0642 15.2083C23.0764 15.2059 23.0958 15.2034 23.1226 15.1961C23.1493 15.1876 23.1675 15.179 23.1785 15.1754C23.187 15.1717 23.2052 15.1656 23.2308 15.1534C23.2575 15.1388 23.2745 15.1266 23.2879 15.1169L23.3134 15.101L23.3195 15.0974L32.0942 8.12409C32.2413 8.00706 32.3191 7.83151 32.3191 7.65718C32.3191 7.52795 32.2765 7.39629 32.1902 7.28779C32.0735 7.13906 31.8984 7.06225 31.7245 7.06225C31.5957 7.06225 31.4644 7.10492 31.3561 7.19148L22.9572 13.8661L14.5947 7.19026C14.4853 7.1037 14.354 7.06104 14.2251 7.06104C14.0513 7.06104 13.8774 7.13784 13.7595 7.28535C13.6731 7.39385 13.6294 7.52673 13.6306 7.65596C13.6306 7.83029 13.7072 8.00462 13.8543 8.12165Z" fill="white"/>
<path d="M45.0075 1.52144C44.9066 1.45195 44.7886 1.4166 44.6707 1.4166C44.5406 1.4166 44.4117 1.45927 44.3047 1.54338L34.4541 9.28103L33.2176 0.512023C33.1763 0.218219 32.9258 0 32.6291 0H13.3193C13.0227 0 12.7722 0.218219 12.7309 0.512023L11.4944 9.28103L1.64373 1.54338C1.53674 1.45927 1.40665 1.4166 1.27777 1.4166C1.16105 1.4166 1.04311 1.45195 0.940983 1.52144C0.776846 1.63482 0.683228 1.82012 0.683228 2.01274C0.683228 2.07125 0.691738 2.12977 0.709976 2.18707L2.1325 6.85501C2.17383 6.99033 2.26137 7.10615 2.38052 7.18295L2.93981 7.54259L4.65291 12.1167C4.71127 12.2727 4.83285 12.3971 4.98605 12.4592L5.85658 12.8115L7.3788 16.1458C7.45783 16.3189 7.61588 16.4445 7.80191 16.4823L8.87184 16.6968L10.1424 18.8522L9.29616 24.849C9.29251 24.877 9.29008 24.905 9.29008 24.9331C9.29008 25.1354 9.39343 25.3256 9.56729 25.4366L22.8624 33.8447V33.796C22.8976 33.802 22.9341 33.8057 22.9694 33.8057C23.0375 33.8057 23.1043 33.7923 23.1688 33.7704L23.1785 33.785L36.3775 25.4378C36.5514 25.3281 36.6547 25.1367 36.6547 24.9343C36.6547 24.9063 36.6523 24.8782 36.6487 24.8502L35.8024 18.8534L37.0742 16.6968L38.1429 16.4823C38.3302 16.4445 38.487 16.3201 38.566 16.1458L40.0882 12.8115L40.9588 12.4592C41.1132 12.3971 41.2336 12.2727 41.2919 12.1167L43.005 7.54259L43.5643 7.18417C43.6822 7.10737 43.771 6.99155 43.8123 6.85623L45.2361 2.18829C45.2531 2.13099 45.2616 2.07125 45.2616 2.01396C45.2616 1.82134 45.168 1.63604 45.0038 1.52388L45.0075 1.52144ZM13.6962 15.991C13.7692 16.0202 13.8446 16.0349 13.9187 16.0349C14.1534 16.0349 14.3759 15.8947 14.4695 15.663C14.4987 15.5899 14.5133 15.5143 14.5133 15.4399C14.5133 15.2046 14.3735 14.9815 14.1425 14.8877L5.67421 11.4535L4.61157 8.6154L11.3302 12.9286L11.7667 13.2078C11.8652 13.2711 11.9771 13.3016 12.0865 13.3016C12.2822 13.3016 12.4743 13.2041 12.5874 13.0273C12.6506 12.9286 12.681 12.8164 12.681 12.7067C12.681 12.5104 12.5838 12.3178 12.4075 12.2044L11.971 11.9253L3.20486 6.29666L2.39755 3.64877L11.5722 10.8561L21.2125 18.4292L17.4361 18.3938C17.7036 18.3816 17.9371 18.1914 17.993 17.9171C18.0003 17.8781 18.0051 17.8379 18.0051 17.8001C18.0051 17.5209 17.8094 17.2735 17.5273 17.2162L8.33565 15.3729L7.46269 13.4613L13.6987 15.9897L13.6962 15.991ZM17.2927 18.3853C17.3231 18.3914 17.3522 18.3926 17.3826 18.3938L11.2208 18.3365L10.439 17.0101L17.2939 18.3853H17.2927ZM22.9742 32.5061L10.5278 24.6344L11.2476 19.5288L22.9536 19.6373H22.973H22.9876H22.9925L34.6985 19.53L35.4195 24.6356L22.973 32.5074L22.9742 32.5061ZM13.8348 1.19228H32.1124L33.3732 10.1307L22.9742 18.2999L12.574 10.1307L13.8348 1.19228ZM42.7424 6.29666L33.9775 11.924L33.5422 12.2032C33.3647 12.3166 33.2674 12.5092 33.2674 12.7055C33.2674 12.8152 33.2978 12.9274 33.3611 13.0261C33.4741 13.2041 33.6662 13.3016 33.862 13.3004C33.9714 13.3004 34.0833 13.2699 34.1817 13.2065L34.6207 12.9249L41.3357 8.61418L40.273 11.4522L31.8048 14.8865C31.5738 14.9803 31.4328 15.2034 31.4328 15.4387C31.4328 15.5131 31.4461 15.5887 31.4765 15.6618C31.5701 15.8934 31.7926 16.0349 32.0273 16.0336C32.1015 16.0336 32.1768 16.019 32.2498 15.9897L38.4858 13.4613L37.6128 15.3729L28.4211 17.2162C28.1391 17.2735 27.9433 17.5209 27.9433 17.8001C27.9433 17.8391 27.947 17.8781 27.9555 17.9171C28.0102 18.1914 28.2449 18.3816 28.5123 18.3938L24.736 18.4292L34.3763 10.8561L43.5509 3.64877L42.7436 6.29666H42.7424ZM34.7277 18.3365L28.5658 18.3938C28.595 18.3926 28.6254 18.3914 28.6546 18.3853L35.5094 17.0101L34.7277 18.3365Z" fill="white"/>
<path d="M52.2952 22.226C51.4446 22.0064 50.7664 21.73 50.2617 21.3969L51.2981 19.159C51.777 19.465 52.3543 19.7154 53.0326 19.9079C53.7096 20.1016 54.3743 20.1978 55.0255 20.1978C56.3414 20.1978 56.9987 19.8721 56.9987 19.2195C56.9987 18.9135 56.819 18.6939 56.4608 18.5607C56.1014 18.4274 55.5499 18.3139 54.8064 18.2214C53.9299 18.0882 53.2049 17.9352 52.6337 17.7625C52.0626 17.5898 51.5677 17.2826 51.1492 16.8434C50.7307 16.4042 50.5214 15.7775 50.5214 14.9657C50.5214 14.2859 50.7171 13.6839 51.1098 13.1583C51.5012 12.6328 52.0736 12.2232 52.8245 11.9296C53.5754 11.6372 54.4617 11.4904 55.4859 11.4904C56.2429 11.4904 56.9975 11.5742 57.7484 11.7396C58.4993 11.9061 59.1209 12.1356 59.6121 12.4292L58.5756 14.6462C57.6314 14.1132 56.6024 13.8467 55.4859 13.8467C54.8212 13.8467 54.3226 13.9405 53.9903 14.1268C53.6579 14.3131 53.4917 14.5536 53.4917 14.846C53.4917 15.1791 53.6714 15.4123 54.0296 15.5455C54.3879 15.6788 54.959 15.8046 55.7444 15.9255C56.6208 16.0723 57.3397 16.229 57.8973 16.3943C58.455 16.5608 58.94 16.8643 59.3523 17.3035C59.7647 17.7427 59.9703 18.3559 59.9703 19.1417C59.9703 19.8079 59.7709 20.4001 59.372 20.9195C58.9732 21.4389 58.3922 21.8423 57.6278 22.1285C56.8633 22.4147 55.9561 22.5578 54.9073 22.5578C54.0173 22.5578 53.1458 22.448 52.2964 22.2285L52.2952 22.226Z" fill="#F8F8F8"/>
<path d="M70.8335 12.6772C71.7235 13.4692 72.1691 14.6647 72.1691 16.2635V22.3962H69.2591V21.0577C68.6744 22.057 67.585 22.5554 65.9896 22.5554C65.1649 22.5554 64.4509 22.416 63.8465 22.1359C63.2421 21.8559 62.7805 21.4697 62.4605 20.9775C62.1417 20.4852 61.9816 19.9251 61.9816 19.2997C61.9816 18.3004 62.3571 17.5145 63.108 16.9421C63.8588 16.3696 65.0184 16.0834 66.5867 16.0834H69.0584C69.0584 15.4036 68.8529 14.8818 68.4405 14.5154C68.0281 14.149 67.4102 13.9664 66.5867 13.9664C66.0155 13.9664 65.4529 14.0564 64.9027 14.2366C64.3512 14.4167 63.8822 14.6597 63.4969 14.9657L62.3805 12.7882C62.9652 12.3762 63.6656 12.0554 64.4829 11.8296C65.3003 11.6039 66.1411 11.4904 67.004 11.4904C68.6645 11.4904 69.941 11.8864 70.831 12.6784L70.8335 12.6772ZM68.182 20.0892C68.5944 19.8425 68.8861 19.4798 69.0584 18.9999V17.9006H66.9252C65.6499 17.9006 65.0123 18.3201 65.0123 19.159C65.0123 19.5587 65.1686 19.8746 65.48 20.1077C65.7927 20.3409 66.2211 20.4569 66.7664 20.4569C67.3117 20.4569 67.7696 20.3335 68.182 20.0868V20.0892Z" fill="#F8F8F8"/>
<path d="M79.1844 11.8889H81.9356V14.2859H79.2644V22.3963H76.155V14.2859H74.5005V11.8889H76.155V11.409C76.155 10.1839 76.5169 9.21174 77.2407 8.4925C77.9645 7.77325 78.985 7.41425 80.3009 7.41425C80.7662 7.41425 81.2081 7.46359 81.6266 7.56352C82.0451 7.66345 82.3935 7.80656 82.6729 7.99285L81.8556 10.2505C81.4961 9.99761 81.0776 9.87054 80.6 9.87054C79.6558 9.87054 79.1844 10.3899 79.1844 11.4287V11.8876V11.8889Z" fill="#F8F8F8"/>
<path d="M94.5936 17.9019H86.4803C86.6268 18.5681 86.9715 19.0936 87.5168 19.4798C88.0621 19.8659 88.7391 20.0596 89.5503 20.0596C90.108 20.0596 90.6028 19.977 91.0349 19.8104C91.4669 19.6439 91.8682 19.3811 92.2412 19.0209L93.8956 20.8183C92.885 21.9768 91.4103 22.5566 89.4703 22.5566C88.2615 22.5566 87.1906 22.3198 86.2612 21.8472C85.3306 21.3747 84.6129 20.7184 84.1082 19.8795C83.6035 19.0406 83.3512 18.0882 83.3512 17.0223C83.3512 15.9563 83.5999 15.0212 84.0984 14.1761C84.5969 13.331 85.2813 12.671 86.1516 12.1985C87.0219 11.726 87.9956 11.4891 89.0715 11.4891C90.1474 11.4891 91.0718 11.7161 91.9224 12.1689C92.773 12.6217 93.4402 13.2706 93.9252 14.1169C94.4102 14.9632 94.6527 15.9452 94.6527 17.0642C94.6527 17.1037 94.633 17.3837 94.5936 17.9031V17.9019ZM87.3174 14.4463C86.8385 14.846 86.5468 15.3926 86.4409 16.0847H91.723C91.6159 15.4049 91.3242 14.8633 90.8465 14.4562C90.3677 14.0503 89.783 13.8467 89.0924 13.8467C88.4018 13.8467 87.7962 14.0466 87.3186 14.4463H87.3174Z" fill="#F8F8F8"/>
<path d="M100.932 11.8889H103.683V14.2859H101.012V22.3963H97.9024V14.2859H96.248V11.8889H97.9024V11.409C97.9024 10.1839 98.2643 9.21174 98.9881 8.4925C99.7119 7.77325 100.732 7.41425 102.048 7.41425C102.514 7.41425 102.956 7.46359 103.374 7.56352C103.793 7.66345 104.141 7.80656 104.42 7.99285L103.603 10.2505C103.244 9.99761 102.825 9.87054 102.347 9.87054C101.403 9.87054 100.932 10.3899 100.932 11.4287V11.8876V11.8889ZM105.238 7.57339H108.347V22.3963H105.238V7.57339Z" fill="#F8F8F8"/>
<path d="M122.479 17.9019H114.365C114.512 18.5681 114.856 19.0936 115.402 19.4798C115.947 19.8659 116.624 20.0596 117.435 20.0596C117.993 20.0596 118.488 19.977 118.92 19.8104C119.352 19.6439 119.753 19.3811 120.126 19.0209L121.781 20.8183C120.77 21.9768 119.295 22.5566 117.355 22.5566C116.147 22.5566 115.076 22.3198 114.146 21.8472C113.216 21.3747 112.498 20.7184 111.993 19.8795C111.489 19.0406 111.236 18.0882 111.236 17.0223C111.236 15.9563 111.485 15.0212 111.983 14.1761C112.482 13.331 113.166 12.671 114.037 12.1985C114.907 11.726 115.881 11.4891 116.956 11.4891C118.032 11.4891 118.957 11.7161 119.807 12.1689C120.658 12.6217 121.325 13.2706 121.81 14.1169C122.295 14.9632 122.538 15.9452 122.538 17.0642C122.538 17.1037 122.518 17.3837 122.479 17.9031V17.9019ZM115.202 14.4463C114.724 14.846 114.432 15.3926 114.326 16.0847H119.608C119.501 15.4049 119.209 14.8633 118.732 14.4562C118.253 14.0503 117.668 13.8467 116.977 13.8467C116.287 13.8467 115.681 14.0466 115.204 14.4463H115.202Z" fill="#F8F8F8"/>
<path d="M136.333 7.57336V22.3962H133.363V21.1576C132.592 22.0903 131.476 22.5554 130.015 22.5554C129.005 22.5554 128.091 22.3296 127.273 21.8756C126.456 21.4228 125.815 20.7764 125.349 19.9375C124.884 19.0986 124.651 18.1264 124.651 17.021C124.651 15.9156 124.884 14.9435 125.349 14.1046C125.815 13.2656 126.456 12.6192 127.273 12.1664C128.091 11.7136 129.004 11.4866 130.015 11.4866C131.383 11.4866 132.453 11.9197 133.224 12.7857V7.57336H136.333ZM132.506 19.1899C133.024 18.6507 133.283 17.9278 133.283 17.0222C133.283 16.1167 133.024 15.3938 132.506 14.8546C131.988 14.3155 131.337 14.0453 130.552 14.0453C129.768 14.0453 129.097 14.3155 128.579 14.8546C128.061 15.3938 127.801 16.1167 127.801 17.0222C127.801 17.9278 128.061 18.6507 128.579 19.1899C129.097 19.729 129.755 19.9992 130.552 19.9992C131.35 19.9992 131.988 19.729 132.506 19.1899Z" fill="#F8F8F8"/>
<path d="M151.063 11.6482V20.5975C151.063 22.5689 150.551 24.0333 149.528 24.9919C148.505 25.9505 147.009 26.4304 145.043 26.4304C144.007 26.4304 143.023 26.3033 142.093 26.0504C141.162 25.7975 140.392 25.4311 139.781 24.9512L141.017 22.7133C141.469 23.0858 142.04 23.3819 142.732 23.6028C143.422 23.8224 144.114 23.9322 144.805 23.9322C145.88 23.9322 146.674 23.6891 147.187 23.203C147.699 22.717 147.953 21.9817 147.953 20.996V20.537C147.142 21.429 146.013 21.8756 144.565 21.8756C143.581 21.8756 142.681 21.6597 141.864 21.2267C141.046 20.7936 140.399 20.1842 139.92 19.3983C139.441 18.6125 139.203 17.7069 139.203 16.6817C139.203 15.6565 139.441 14.751 139.92 13.9651C140.399 13.1793 141.046 12.5698 141.864 12.1368C142.681 11.7038 143.581 11.4879 144.565 11.4879C146.119 11.4879 147.302 12.0011 148.112 13.0263V11.6482H151.063ZM147.206 18.5902C147.731 18.1042 147.994 17.4688 147.994 16.6829C147.994 15.8971 147.732 15.2617 147.206 14.7757C146.681 14.2896 146.007 14.0465 145.183 14.0465C144.358 14.0465 143.681 14.2896 143.149 14.7757C142.617 15.2617 142.351 15.8983 142.351 16.6829C142.351 17.4676 142.617 18.1042 143.149 18.5902C143.681 19.0763 144.358 19.3194 145.183 19.3194C146.007 19.3194 146.681 19.0763 147.206 18.5902Z" fill="#F8F8F8"/>
<path d="M165.196 17.9019H157.082C157.229 18.5681 157.573 19.0936 158.119 19.4798C158.664 19.8659 159.341 20.0596 160.152 20.0596C160.71 20.0596 161.205 19.977 161.637 19.8104C162.069 19.6439 162.47 19.3811 162.843 19.0209L164.498 20.8183C163.487 21.9768 162.012 22.5566 160.072 22.5566C158.863 22.5566 157.793 22.3198 156.863 21.8472C155.933 21.3747 155.215 20.7184 154.71 19.8795C154.206 19.0406 153.953 18.0882 153.953 17.0223C153.953 15.9563 154.202 15.0212 154.7 14.1761C155.199 13.331 155.883 12.671 156.754 12.1985C157.624 11.726 158.598 11.4891 159.673 11.4891C160.749 11.4891 161.674 11.7161 162.524 12.1689C163.375 12.6217 164.042 13.2706 164.527 14.1169C165.012 14.9632 165.255 15.9452 165.255 17.0642C165.255 17.1037 165.235 17.3837 165.196 17.9031V17.9019ZM157.919 14.4463C157.441 14.846 157.149 15.3926 157.043 16.0847H162.325C162.218 15.4049 161.926 14.8633 161.449 14.4562C160.97 14.0503 160.385 13.8467 159.694 13.8467C159.004 13.8467 158.398 14.0466 157.921 14.4463H157.919Z" fill="#F8F8F8"/>
</svg>
