<svg width="32" height="32" viewBox="0 0 32 32" fill="none" xmlns="http://www.w3.org/2000/svg">
<path d="M4.96655 27.9999C4.67766 27.9999 4.43877 27.9054 4.24989 27.7166C4.061 27.5277 3.96655 27.2888 3.96655 26.9999C3.96655 26.711 4.061 26.4721 4.24989 26.2832C4.43877 26.0943 4.67766 25.9999 4.96655 25.9999H26.9999C27.2888 25.9999 27.5277 26.0943 27.7166 26.2832C27.9054 26.4721 27.9999 26.711 27.9999 26.9999C27.9999 27.2888 27.9054 27.5277 27.7166 27.7166C27.5277 27.9054 27.2888 27.9999 26.9999 27.9999H4.96655ZM25.5666 20.9666L4.73322 15.1666C4.511 15.0999 4.33322 14.9777 4.19989 14.7999C4.06655 14.6221 3.99989 14.4221 3.99989 14.1999V8.99989C3.99989 8.73323 4.09433 8.53323 4.28322 8.39989C4.47211 8.26656 4.69989 8.24434 4.96655 8.33323C5.05544 8.37767 5.13322 8.43323 5.19989 8.49989C5.26655 8.56656 5.32211 8.64434 5.36655 8.73323L6.33322 11.6332L13.6332 13.6666V4.06656C13.6332 3.68878 13.7721 3.38878 14.0499 3.16656C14.3277 2.94434 14.6554 2.88878 15.0332 2.99989C15.1888 3.04434 15.3332 3.12767 15.4666 3.24989C15.5999 3.37211 15.6888 3.511 15.7332 3.66656L19.3999 15.2666L26.5666 17.2999C26.9888 17.411 27.3332 17.6388 27.5999 17.9832C27.8666 18.3277 27.9999 18.7221 27.9999 19.1666C27.9999 19.7888 27.7499 20.2888 27.2499 20.6666C26.7499 21.0443 26.1888 21.1443 25.5666 20.9666Z" fill="black"/>
</svg>
