<svg width="32" height="32" viewBox="0 0 32 32" fill="none" xmlns="http://www.w3.org/2000/svg">
<path d="M5.03334 28C4.74445 28 4.50556 27.9056 4.31667 27.7167C4.12778 27.5278 4.03334 27.2889 4.03334 27C4.03334 26.7111 4.12778 26.4722 4.31667 26.2833C4.50556 26.0944 4.74445 26 5.03334 26H27.0333C27.3222 26 27.5611 26.0944 27.75 26.2833C27.9389 26.4722 28.0333 26.7111 28.0333 27C28.0333 27.2889 27.9389 27.5278 27.75 27.7167C27.5611 27.9056 27.3222 28 27.0333 28H5.03334ZM6.86667 20.8667C6.64445 20.9333 6.42778 20.9222 6.21667 20.8333C6.00556 20.7444 5.84445 20.6 5.73334 20.4L3.23334 16.1333C3.07778 15.8889 3.05 15.6556 3.15 15.4333C3.25 15.2111 3.44445 15.0778 3.73334 15.0333C3.84445 15.0111 3.96667 15.0222 4.1 15.0667C4.23334 15.1111 4.34445 15.1667 4.43334 15.2333L6.46667 17.0333L14 15L9 6.63333C8.8 6.3 8.76112 5.97778 8.88334 5.66667C9.00556 5.35556 9.25556 5.14444 9.63334 5.03333C9.81112 4.98889 10 4.98889 10.2 5.03333C10.4 5.07778 10.5667 5.15556 10.7 5.26667L19.7333 13.4333L26.9333 11.5C27.5333 11.3222 28.0778 11.4278 28.5667 11.8167C29.0556 12.2056 29.3 12.7222 29.3 13.3667C29.3 13.7889 29.1722 14.1667 28.9167 14.5C28.6611 14.8333 28.3333 15.0556 27.9333 15.1667L6.86667 20.8667Z" fill="black"/>
</svg>
