<svg width="32" height="32" viewBox="0 0 32 32" fill="none" xmlns="http://www.w3.org/2000/svg">
<path d="M16 18.6665C15.6222 18.6665 15.3056 18.5387 15.05 18.2832C14.7944 18.0276 14.6667 17.7109 14.6667 17.3332C14.6667 16.9554 14.7944 16.6387 15.05 16.3832C15.3056 16.1276 15.6222 15.9998 16 15.9998C16.3778 15.9998 16.6944 16.1276 16.95 16.3832C17.2056 16.6387 17.3333 16.9554 17.3333 17.3332C17.3333 17.7109 17.2056 18.0276 16.95 18.2832C16.6944 18.5387 16.3778 18.6665 16 18.6665ZM10.6667 18.6665C10.2889 18.6665 9.97222 18.5387 9.71667 18.2832C9.46111 18.0276 9.33333 17.7109 9.33333 17.3332C9.33333 16.9554 9.46111 16.6387 9.71667 16.3832C9.97222 16.1276 10.2889 15.9998 10.6667 15.9998C11.0444 15.9998 11.3611 16.1276 11.6167 16.3832C11.8722 16.6387 12 16.9554 12 17.3332C12 17.7109 11.8722 18.0276 11.6167 18.2832C11.3611 18.5387 11.0444 18.6665 10.6667 18.6665ZM21.3333 18.6665C20.9556 18.6665 20.6389 18.5387 20.3833 18.2832C20.1278 18.0276 20 17.7109 20 17.3332C20 16.9554 20.1278 16.6387 20.3833 16.3832C20.6389 16.1276 20.9556 15.9998 21.3333 15.9998C21.7111 15.9998 22.0278 16.1276 22.2833 16.3832C22.5389 16.6387 22.6667 16.9554 22.6667 17.3332C22.6667 17.7109 22.5389 18.0276 22.2833 18.2832C22.0278 18.5387 21.7111 18.6665 21.3333 18.6665ZM16 23.9998C15.6222 23.9998 15.3056 23.8721 15.05 23.6165C14.7944 23.3609 14.6667 23.0443 14.6667 22.6665C14.6667 22.2887 14.7944 21.9721 15.05 21.7165C15.3056 21.4609 15.6222 21.3332 16 21.3332C16.3778 21.3332 16.6944 21.4609 16.95 21.7165C17.2056 21.9721 17.3333 22.2887 17.3333 22.6665C17.3333 23.0443 17.2056 23.3609 16.95 23.6165C16.6944 23.8721 16.3778 23.9998 16 23.9998ZM10.6667 23.9998C10.2889 23.9998 9.97222 23.8721 9.71667 23.6165C9.46111 23.3609 9.33333 23.0443 9.33333 22.6665C9.33333 22.2887 9.46111 21.9721 9.71667 21.7165C9.97222 21.4609 10.2889 21.3332 10.6667 21.3332C11.0444 21.3332 11.3611 21.4609 11.6167 21.7165C11.8722 21.9721 12 22.2887 12 22.6665C12 23.0443 11.8722 23.3609 11.6167 23.6165C11.3611 23.8721 11.0444 23.9998 10.6667 23.9998ZM21.3333 23.9998C20.9556 23.9998 20.6389 23.8721 20.3833 23.6165C20.1278 23.3609 20 23.0443 20 22.6665C20 22.2887 20.1278 21.9721 20.3833 21.7165C20.6389 21.4609 20.9556 21.3332 21.3333 21.3332C21.7111 21.3332 22.0278 21.4609 22.2833 21.7165C22.5389 21.9721 22.6667 22.2887 22.6667 22.6665C22.6667 23.0443 22.5389 23.3609 22.2833 23.6165C22.0278 23.8721 21.7111 23.9998 21.3333 23.9998ZM6 29.3332C5.46667 29.3332 5 29.1332 4.6 28.7332C4.2 28.3332 4 27.8665 4 27.3332V6.6665C4 6.13317 4.2 5.6665 4.6 5.2665C5 4.8665 5.46667 4.6665 6 4.6665H8.16667V3.73317C8.16667 3.43095 8.26889 3.17761 8.47333 2.97317C8.67778 2.76873 8.93111 2.6665 9.23333 2.6665C9.545 2.6665 9.80626 2.76873 10.0171 2.97317C10.2279 3.17761 10.3333 3.43095 10.3333 3.73317V4.6665H21.6667V3.73317C21.6667 3.43095 21.7689 3.17761 21.9733 2.97317C22.1778 2.76873 22.4311 2.6665 22.7333 2.6665C23.045 2.6665 23.3063 2.76873 23.5171 2.97317C23.7279 3.17761 23.8333 3.43095 23.8333 3.73317V4.6665H26C26.5333 4.6665 27 4.8665 27.4 5.2665C27.8 5.6665 28 6.13317 28 6.6665V27.3332C28 27.8665 27.8 28.3332 27.4 28.7332C27 29.1332 26.5333 29.3332 26 29.3332H6ZM6 27.3332H26V12.9998H6V27.3332ZM6 10.9998H26V6.6665H6V10.9998Z" fill="black"/>
</svg>
