<svg width="32" height="32" viewBox="0 0 32 32" fill="none" xmlns="http://www.w3.org/2000/svg">
<path d="M16 15.9668C14.5334 15.9668 13.3334 15.5001 12.4 14.5668C11.4667 13.6335 11 12.4335 11 10.9668C11 9.50013 11.4667 8.30013 12.4 7.3668C13.3334 6.43346 14.5334 5.9668 16 5.9668C17.4667 5.9668 18.6667 6.43346 19.6 7.3668C20.5334 8.30013 21 9.50013 21 10.9668C21 12.4335 20.5334 13.6335 19.6 14.5668C18.6667 15.5001 17.4667 15.9668 16 15.9668ZM24.6667 26.6668H7.33337C6.78337 26.6668 6.31254 26.471 5.92087 26.0793C5.52921 25.6876 5.33337 25.2168 5.33337 24.6668V23.5335C5.33337 22.689 5.54449 21.9668 5.96671 21.3668C6.38893 20.7668 6.93337 20.3112 7.60004 20.0001C9.08893 19.3335 10.5167 18.8335 11.8834 18.5001C13.25 18.1668 14.6223 18.0001 16 18.0001C17.3778 18.0001 18.7445 18.1724 20.1 18.5168C21.4556 18.8612 22.8769 19.3578 24.3641 20.0066C25.0597 20.3205 25.6173 20.7757 26.0371 21.3721C26.4568 21.9686 26.6667 22.689 26.6667 23.5335V24.6668C26.6667 25.2168 26.4709 25.6876 26.0792 26.0793C25.6875 26.471 25.2167 26.6668 24.6667 26.6668ZM7.33337 24.6668H24.6667V23.5335C24.6667 23.1779 24.5612 22.839 24.35 22.5168C24.1389 22.1946 23.8778 21.9557 23.5667 21.8001C22.1445 21.1112 20.8445 20.639 19.6667 20.3835C18.4889 20.1279 17.2667 20.0001 16 20.0001C14.7334 20.0001 13.5 20.1279 12.3 20.3835C11.1 20.639 9.80004 21.1112 8.40004 21.8001C8.08893 21.9557 7.83337 22.1946 7.63337 22.5168C7.43337 22.839 7.33337 23.1779 7.33337 23.5335V24.6668ZM16 13.9668C16.8667 13.9668 17.5834 13.6835 18.15 13.1168C18.7167 12.5501 19 11.8335 19 10.9668C19 10.1001 18.7167 9.38346 18.15 8.8168C17.5834 8.25013 16.8667 7.9668 16 7.9668C15.1334 7.9668 14.4167 8.25013 13.85 8.8168C13.2834 9.38346 13 10.1001 13 10.9668C13 11.8335 13.2834 12.5501 13.85 13.1168C14.4167 13.6835 15.1334 13.9668 16 13.9668Z" fill="black"/>
</svg>
