<svg width="40" height="40" viewBox="0 0 40 40" fill="none" xmlns="http://www.w3.org/2000/svg">
<rect width="40" height="40" rx="20" fill="#C9D3FF"/>
<path d="M16.5667 33.0665C16.3223 33.1332 16.1112 33.0998 15.9334 32.9665C15.7556 32.8332 15.6667 32.6443 15.6667 32.3998C15.6667 32.2665 15.7001 32.1332 15.7667 31.9998C15.8334 31.8665 15.9223 31.7554 16.0334 31.6665L18.3334 29.9332V21.5665L7.90008 24.6332C7.56675 24.7443 7.27786 24.7109 7.03341 24.5332C6.78897 24.3554 6.66675 24.0776 6.66675 23.6998C6.66675 23.5221 6.71675 23.3387 6.81675 23.1498C6.91675 22.9609 7.04453 22.8221 7.20008 22.7332L18.3334 16.1998V8.33317C18.3334 7.8665 18.4945 7.47206 18.8167 7.14984C19.139 6.82762 19.5334 6.6665 20.0001 6.6665C20.4667 6.6665 20.8612 6.82762 21.1834 7.14984C21.5056 7.47206 21.6667 7.8665 21.6667 8.33317V16.1998L32.8001 22.7332C32.9556 22.8221 33.0834 22.9665 33.1834 23.1665C33.2834 23.3665 33.3334 23.5554 33.3334 23.7332C33.3334 24.0887 33.2112 24.3554 32.9667 24.5332C32.7223 24.7109 32.4334 24.7443 32.1001 24.6332L21.6667 21.5665V29.9332L23.9667 31.6665C24.0779 31.7554 24.1667 31.8665 24.2334 31.9998C24.3001 32.1332 24.3334 32.2665 24.3334 32.3998C24.3334 32.6443 24.2445 32.8332 24.0667 32.9665C23.889 33.0998 23.6779 33.1332 23.4334 33.0665L20.0001 32.0998L16.5667 33.0665Z" fill="white"/>
</svg>
