<svg width="32" height="32" viewBox="0 0 32 32" fill="none" xmlns="http://www.w3.org/2000/svg">
<path d="M15.9942 25.3332C15.7092 25.3332 15.4722 25.2373 15.2833 25.0457C15.0944 24.854 15 24.6165 15 24.3332V16.9998H7.66666C7.38333 16.9998 7.14583 16.9034 6.95416 16.7107C6.7625 16.5179 6.66666 16.279 6.66666 15.994C6.66666 15.709 6.7625 15.4721 6.95416 15.2832C7.14583 15.0943 7.38333 14.9998 7.66666 14.9998H15V7.6665C15 7.38317 15.0964 7.14567 15.2892 6.954C15.482 6.76234 15.7209 6.6665 16.0058 6.6665C16.2908 6.6665 16.5278 6.76234 16.7167 6.954C16.9056 7.14567 17 7.38317 17 7.6665V14.9998H24.3333C24.6167 14.9998 24.8542 15.0962 25.0458 15.289C25.2375 15.4818 25.3333 15.7207 25.3333 16.0057C25.3333 16.2907 25.2375 16.5276 25.0458 16.7165C24.8542 16.9054 24.6167 16.9998 24.3333 16.9998H17V24.3332C17 24.6165 16.9036 24.854 16.7108 25.0457C16.518 25.2373 16.2791 25.3332 15.9942 25.3332Z" fill="black"/>
</svg>
