<svg width="32" height="32" viewBox="0 0 32 32" fill="none" xmlns="http://www.w3.org/2000/svg">
<path d="M25.8 27.2335L17.7667 19.2001C17.1 19.7779 16.3227 20.2279 15.4347 20.5501C14.5467 20.8724 13.6018 21.0335 12.6 21.0335C10.1964 21.0335 8.16217 20.2001 6.4973 18.5335C4.83243 16.8668 4 14.8557 4 12.5001C4 10.1446 4.83333 8.13346 6.5 6.4668C8.16667 4.80013 10.1833 3.9668 12.55 3.9668C14.9167 3.9668 16.9278 4.80013 18.5833 6.4668C20.2389 8.13346 21.0667 10.1462 21.0667 12.5051C21.0667 13.4574 20.9111 14.3779 20.6 15.2668C20.2889 16.1557 19.8222 16.989 19.2 17.7668L27.3 25.8001C27.5 25.9877 27.6 26.218 27.6 26.4908C27.6 26.7637 27.4899 27.0103 27.2696 27.2306C27.0676 27.4325 26.8198 27.5335 26.5259 27.5335C26.2321 27.5335 25.9901 27.4335 25.8 27.2335ZM12.5667 19.0335C14.3722 19.0335 15.9069 18.3946 17.1708 17.1168C18.4347 15.839 19.0667 14.3001 19.0667 12.5001C19.0667 10.7001 18.4347 9.16124 17.1708 7.88346C15.9069 6.60569 14.3722 5.9668 12.5667 5.9668C10.7426 5.9668 9.19213 6.60569 7.91527 7.88346C6.63842 9.16124 6 10.7001 6 12.5001C6 14.3001 6.63842 15.839 7.91527 17.1168C9.19213 18.3946 10.7426 19.0335 12.5667 19.0335Z" fill="#F5F5F5"/>
</svg>
