<svg width="24" height="24" viewBox="0 0 24 24" fill="none" xmlns="http://www.w3.org/2000/svg">
<path d="M13.65 22H10.35C10.1667 22 10.0042 21.9417 9.86251 21.825C9.72084 21.7083 9.63334 21.5583 9.60001 21.375L9.20001 18.85C8.88334 18.7333 8.55001 18.575 8.20001 18.375C7.85001 18.175 7.54167 17.9667 7.27501 17.75L4.95001 18.825C4.76667 18.9083 4.58334 18.9208 4.40001 18.8625C4.21667 18.8042 4.07501 18.6833 3.97501 18.5L2.32501 15.575C2.22501 15.4083 2.20001 15.2333 2.25001 15.05C2.30001 14.8667 2.40001 14.7167 2.55001 14.6L4.70001 13.025C4.66667 12.875 4.64584 12.7042 4.63751 12.5125C4.62917 12.3208 4.62501 12.15 4.62501 12C4.62501 11.85 4.62917 11.6792 4.63751 11.4875C4.64584 11.2958 4.66667 11.125 4.70001 10.975L2.55001 9.4C2.40001 9.28333 2.30001 9.13333 2.25001 8.95C2.20001 8.76667 2.22501 8.59167 2.32501 8.425L3.97501 5.5C4.07501 5.31667 4.21667 5.19583 4.40001 5.1375C4.58334 5.07917 4.76667 5.09167 4.95001 5.175L7.27501 6.25C7.54167 6.03333 7.85001 5.825 8.20001 5.625C8.55001 5.425 8.88334 5.275 9.20001 5.175L9.60001 2.625C9.63334 2.44167 9.72084 2.29167 9.86251 2.175C10.0042 2.05833 10.1667 2 10.35 2H13.65C13.8333 2 13.9958 2.05833 14.1375 2.175C14.2792 2.29167 14.3667 2.44167 14.4 2.625L14.8 5.15C15.1167 5.26667 15.4542 5.42083 15.8125 5.6125C16.1708 5.80417 16.475 6.01667 16.725 6.25L19.05 5.175C19.2333 5.09167 19.4167 5.07917 19.6 5.1375C19.7833 5.19583 19.925 5.31667 20.025 5.5L21.675 8.4C21.775 8.56667 21.8042 8.74583 21.7625 8.9375C21.7208 9.12917 21.6167 9.28333 21.45 9.4L19.3 10.925C19.3333 11.0917 19.3542 11.2708 19.3625 11.4625C19.3708 11.6542 19.375 11.8333 19.375 12C19.375 12.1667 19.3708 12.3417 19.3625 12.525C19.3542 12.7083 19.3333 12.8833 19.3 13.05L21.45 14.6C21.6 14.7167 21.7 14.8667 21.75 15.05C21.8 15.2333 21.775 15.4083 21.675 15.575L20.025 18.5C19.925 18.6833 19.7833 18.8042 19.6 18.8625C19.4167 18.9208 19.2333 18.9083 19.05 18.825L16.725 17.75C16.4583 17.9667 16.1542 18.1792 15.8125 18.3875C15.4708 18.5958 15.1333 18.75 14.8 18.85L14.4 21.375C14.3667 21.5583 14.2792 21.7083 14.1375 21.825C13.9958 21.9417 13.8333 22 13.65 22ZM12 15.25C12.9 15.25 13.6667 14.9333 14.3 14.3C14.9333 13.6667 15.25 12.9 15.25 12C15.25 11.1 14.9333 10.3333 14.3 9.7C13.6667 9.06667 12.9 8.75 12 8.75C11.1 8.75 10.3333 9.06667 9.70001 9.7C9.06667 10.3333 8.75001 11.1 8.75001 12C8.75001 12.9 9.06667 13.6667 9.70001 14.3C10.3333 14.9333 11.1 15.25 12 15.25ZM12 13.75C11.5167 13.75 11.1042 13.5792 10.7625 13.2375C10.4208 12.8958 10.25 12.4833 10.25 12C10.25 11.5167 10.4208 11.1042 10.7625 10.7625C11.1042 10.4208 11.5167 10.25 12 10.25C12.4833 10.25 12.8958 10.4208 13.2375 10.7625C13.5792 11.1042 13.75 11.5167 13.75 12C13.75 12.4833 13.5792 12.8958 13.2375 13.2375C12.8958 13.5792 12.4833 13.75 12 13.75ZM10.9 20.5H13.1L13.45 17.7C14 17.5667 14.5208 17.3583 15.0125 17.075C15.5042 16.7917 15.95 16.45 16.35 16.05L19 17.2L20 15.4L17.65 13.675C17.7167 13.3917 17.7708 13.1125 17.8125 12.8375C17.8542 12.5625 17.875 12.2833 17.875 12C17.875 11.7167 17.8583 11.4375 17.825 11.1625C17.7917 10.8875 17.7333 10.6083 17.65 10.325L20 8.6L19 6.8L16.35 7.95C15.9667 7.51667 15.5333 7.15417 15.05 6.8625C14.5667 6.57083 14.0333 6.38333 13.45 6.3L13.1 3.5H10.9L10.55 6.3C9.98334 6.41667 9.45417 6.61667 8.96251 6.9C8.47084 7.18333 8.03334 7.53333 7.65001 7.95L5.00001 6.8L4.00001 8.6L6.35001 10.325C6.28334 10.6083 6.22917 10.8875 6.18751 11.1625C6.14584 11.4375 6.12501 11.7167 6.12501 12C6.12501 12.2833 6.14584 12.5625 6.18751 12.8375C6.22917 13.1125 6.28334 13.3917 6.35001 13.675L4.00001 15.4L5.00001 17.2L7.65001 16.05C8.05001 16.45 8.49584 16.7917 8.98751 17.075C9.47917 17.3583 10 17.5667 10.55 17.7L10.9 20.5Z" fill="#F8F8F8"/>
</svg>
