<svg width="24" height="24" viewBox="0 0 24 24" fill="none" xmlns="http://www.w3.org/2000/svg">
<path d="M13.975 21.825C13.7417 21.8583 13.5417 21.8042 13.375 21.6625C13.2083 21.5208 13.125 21.325 13.125 21.075C13.125 20.8917 13.1833 20.7333 13.3 20.6C13.4167 20.4667 13.5667 20.3833 13.75 20.35C14.2833 20.2333 14.8042 20.0708 15.3125 19.8625C15.8208 19.6542 16.3083 19.3917 16.775 19.075C16.925 18.975 17.0917 18.9333 17.275 18.95C17.4583 18.9667 17.6083 19.0417 17.725 19.175C17.8917 19.3583 17.9667 19.5583 17.95 19.775C17.9333 19.9917 17.8333 20.1667 17.65 20.3C17.0833 20.6833 16.4958 21 15.8875 21.25C15.2792 21.5 14.6417 21.6917 13.975 21.825ZM19.225 17.65C19.0917 17.5333 19.0167 17.3833 19 17.2C18.9833 17.0167 19.025 16.85 19.125 16.7C19.425 16.25 19.6792 15.775 19.8875 15.275C20.0958 14.775 20.2667 14.2417 20.4 13.675C20.4333 13.4917 20.525 13.3417 20.675 13.225C20.825 13.1083 20.9917 13.05 21.175 13.05C21.4083 13.05 21.6 13.1333 21.75 13.3C21.9 13.4667 21.95 13.6667 21.9 13.9C21.7667 14.5833 21.5667 15.2333 21.3 15.85C21.0333 16.4667 20.7167 17.0417 20.35 17.575C20.2167 17.7583 20.0417 17.8583 19.825 17.875C19.6083 17.8917 19.4083 17.8167 19.225 17.65ZM21.175 10.95C20.9917 10.95 20.825 10.8917 20.675 10.775C20.525 10.6583 20.4333 10.5083 20.4 10.325C20.2667 9.775 20.0958 9.25 19.8875 8.75C19.6792 8.25 19.425 7.76667 19.125 7.3C19.025 7.15 18.9875 6.98333 19.0125 6.8C19.0375 6.61667 19.1167 6.45833 19.25 6.325C19.4333 6.15833 19.6292 6.0875 19.8375 6.1125C20.0458 6.1375 20.2167 6.24167 20.35 6.425C20.7333 7.00833 21.05 7.59583 21.3 8.1875C21.55 8.77917 21.75 9.41667 21.9 10.1C21.95 10.3333 21.9042 10.5333 21.7625 10.7C21.6208 10.8667 21.425 10.95 21.175 10.95ZM10.15 21.825C7.81667 21.3583 5.89167 20.2125 4.375 18.3875C2.85833 16.5625 2.1 14.4333 2.1 12C2.1 9.56667 2.85833 7.4375 4.375 5.6125C5.89167 3.7875 7.81667 2.64167 10.15 2.175C10.3833 2.125 10.5833 2.175 10.75 2.325C10.9167 2.475 11 2.66667 11 2.9C11 3.08333 10.9417 3.24583 10.825 3.3875C10.7083 3.52917 10.5583 3.61667 10.375 3.65C8.40833 4.06667 6.7875 5.05833 5.5125 6.625C4.2375 8.19167 3.6 9.98333 3.6 12C3.6 14.0167 4.2375 15.8083 5.5125 17.375C6.7875 18.9417 8.40833 19.9333 10.375 20.35C10.5583 20.3833 10.7083 20.4708 10.825 20.6125C10.9417 20.7542 11 20.9167 11 21.1C11 21.3333 10.9167 21.525 10.75 21.675C10.5833 21.825 10.3833 21.875 10.15 21.825ZM16.8 4.95C16.3167 4.65 15.825 4.39583 15.325 4.1875C14.825 3.97917 14.3167 3.80833 13.8 3.675C13.6167 3.64167 13.4667 3.55 13.35 3.4C13.2333 3.25 13.175 3.08333 13.175 2.9C13.175 2.66667 13.2542 2.47917 13.4125 2.3375C13.5708 2.19583 13.7667 2.15 14 2.2C14.6333 2.33333 15.2583 2.52083 15.875 2.7625C16.4917 3.00417 17.0833 3.31667 17.65 3.7C17.8333 3.83333 17.9375 4.00833 17.9625 4.225C17.9875 4.44167 17.9167 4.64167 17.75 4.825C17.6333 4.95833 17.4833 5.03333 17.3 5.05C17.1167 5.06667 16.95 5.03333 16.8 4.95ZM12.075 16.9C11.9417 16.9 11.8125 16.875 11.6875 16.825C11.5625 16.775 11.45 16.7083 11.35 16.625C10.1833 15.5583 9.3125 14.5667 8.7375 13.65C8.1625 12.7333 7.875 11.875 7.875 11.075C7.875 9.75833 8.3 8.7125 9.15 7.9375C10 7.1625 10.975 6.775 12.075 6.775C13.175 6.775 14.15 7.1625 15 7.9375C15.85 8.7125 16.275 9.75833 16.275 11.075C16.275 11.875 15.9875 12.7333 15.4125 13.65C14.8375 14.5667 13.9667 15.5583 12.8 16.625C12.7 16.7083 12.5875 16.775 12.4625 16.825C12.3375 16.875 12.2083 16.9 12.075 16.9ZM12.075 12.025C12.3917 12.025 12.6583 11.9167 12.875 11.7C13.0917 11.4833 13.2 11.2083 13.2 10.875C13.2 10.575 13.0917 10.3125 12.875 10.0875C12.6583 9.8625 12.3917 9.75 12.075 9.75C11.7583 9.75 11.4917 9.8625 11.275 10.0875C11.0583 10.3125 10.95 10.575 10.95 10.875C10.95 11.2083 11.0583 11.4833 11.275 11.7C11.4917 11.9167 11.7583 12.025 12.075 12.025Z" fill="#F8F8F8"/>
</svg>
